HIERARCHY
ROOT Hips
{
	OFFSET -0.001795 -0.223333 0.028219
	CHANNELS 6 Xposition Yposition Zposition Zrotation Yrotation Xrotation 
	JOINT LeftUpLeg
	{
		OFFSET 0.069520 -0.091406 -0.006815
		CHANNELS 3 Zrotation Yrotation Xrotation
		JOINT LeftLeg
		{
			OFFSET 0.034277 -0.375199 -0.004496
			CHANNELS 3 Zrotation Yrotation Xrotation
			JOINT LeftFoot
			{
				OFFSET -0.013596 -0.397961 -0.043693
				CHANNELS 3 Zrotation Yrotation Xrotation
				JOINT LeftToe
				{
					OFFSET 0.026358 -0.055791 0.119288
					CHANNELS 3 Zrotation Yrotation Xrotation
					End Site
					{
						OFFSET 0.000000 0.000000 0.000000
					}
				}
			}
		}
	}
	JOINT RightUpLeg
	{
		OFFSET -0.067670 -0.090522 -0.004320
		CHANNELS 3 Zrotation Yrotation Xrotation
		JOINT RightLeg
		{
			OFFSET -0.038290 -0.382569 -0.008850
			CHANNELS 3 Zrotation Yrotation Xrotation
			JOINT RightFoot
			{
				OFFSET 0.015774 -0.398415 -0.042312
				CHANNELS 3 Zrotation Yrotation Xrotation
				JOINT RightToe
				{
					OFFSET -0.025372 -0.048144 0.123348
					CHANNELS 3 Zrotation Yrotation Xrotation
					End Site
					{
						OFFSET 0.000000 0.000000 0.000000
					}
				}
			}
		}
	}
	JOINT Spine
	{
		OFFSET -0.002533 0.108963 -0.026696
		CHANNELS 3 Zrotation Yrotation Xrotation
		JOINT Spine1
		{
			OFFSET 0.005487 0.135180 0.001092
			CHANNELS 3 Zrotation Yrotation Xrotation
			JOINT Spine2
			{
				OFFSET 0.001457 0.052922 0.025425
				CHANNELS 3 Zrotation Yrotation Xrotation
				JOINT Neck
				{
					OFFSET -0.002778 0.213870 -0.042857
					CHANNELS 3 Zrotation Yrotation Xrotation
					JOINT Head
					{
						OFFSET 0.005152 0.064970 0.051349
						CHANNELS 3 Zrotation Yrotation Xrotation
						End Site
						{
							OFFSET 0.000000 0.000000 0.000000
						}
					}
				}
				JOINT LeftShoulder
				{
					OFFSET 0.078845 0.121749 -0.034090
					CHANNELS 3 Zrotation Yrotation Xrotation
					JOINT LeftArm
					{
						OFFSET 0.090977 0.030469 -0.008868
						CHANNELS 3 Zrotation Yrotation Xrotation
						JOINT LeftForeArm
						{
							OFFSET 0.259612 -0.012772 -0.027456
							CHANNELS 3 Zrotation Yrotation Xrotation
							JOINT LeftHand
							{
								OFFSET 0.249234 0.008986 -0.001171
								CHANNELS 3 Zrotation Yrotation Xrotation
								End Site
								{
									OFFSET 0.000000 0.000000 0.000000
								}
							}
						}
					}
				}
				JOINT RightShoulder
				{
					OFFSET -0.081759 0.118833 -0.038615
					CHANNELS 3 Zrotation Yrotation Xrotation
					JOINT RightArm
					{
						OFFSET -0.096012 0.032551 -0.009143
						CHANNELS 3 Zrotation Yrotation Xrotation
						JOINT RightForeArm
						{
							OFFSET -0.253742 -0.013329 -0.021401
							CHANNELS 3 Zrotation Yrotation Xrotation
							JOINT RightHand
							{
								OFFSET -0.255298 0.007772 -0.005559
								CHANNELS 3 Zrotation Yrotation Xrotation
								End Site
								{
									OFFSET 0.000000 0.000000 0.000000
								}
							}
						}
					}
				}
			}
		}
	}
}
MOTION
Frames: 13
Frame Time: 0.050000
0.000097 0.959174 -0.083866 -0.279233 1.539507 12.483260 6.469398 -0.834665 -15.258747 1.185367 -0.113192 -0.179817 1.691688 7.596522 12.181269 0.000000 0.000000 0.000000 -4.718569 1.266930 -17.959076 -5.023447 0.832459 3.810537 1.930630 -0.663729 11.322679 0.000000 0.000000 0.000000 3.252613 -0.268169 1.308291 1.597867 -0.803086 1.259661 -8.255437 2.621807 8.133302 11.421111 -9.153477 -1.075683 0.000000 0.000000 0.000000 21.879339 -4.305697 3.199189 -11.730904 -38.183127 -0.035622 125.526003 -31.665603 -55.709265 0.000000 0.000000 0.000000 -12.771127 -3.510078 -0.472230 26.763051 32.253297 3.893588 -140.599771 37.250147 -72.160254 0.000000 0.000000 0.000000 
0.000639 0.957152 -0.082743 -0.332249 1.322401 12.124345 6.728709 -0.802139 -15.346466 1.059346 -0.146197 0.852549 1.473214 6.919264 11.114226 0.000000 0.000000 0.000000 -4.833091 1.269472 -18.227151 -4.447531 0.831532 4.809057 1.536922 -1.522193 11.414154 0.000000 0.000000 0.000000 3.349624 -0.354307 2.527636 1.681866 -0.723825 -1.144319 -8.303868 2.267972 8.744982 11.124414 -7.898168 -4.983272 0.000000 0.000000 0.000000 13.322187 -6.767701 3.015392 -27.783461 -47.921850 5.946963 128.937903 -30.002629 -54.817464 0.000000 0.000000 0.000000 -6.080234 -1.210903 -0.156744 44.722078 40.602527 11.477999 -142.532717 35.484767 -71.958623 0.000000 0.000000 0.000000 
0.001314 0.954501 -0.080325 0.256969 1.148620 12.035021 6.124212 -0.853541 -15.449390 0.630526 -0.120064 1.376208 1.343673 6.553061 10.632767 0.000000 0.000000 0.000000 -5.775910 1.119566 -17.199523 -3.917051 0.747154 4.707593 1.426603 -1.193755 9.996737 0.000000 0.000000 0.000000 3.311647 -0.294991 1.780317 1.175483 -0.465897 -1.870451 -8.175820 1.366813 8.735455 9.272236 -5.821972 -8.113841 0.000000 0.000000 0.000000 6.951784 -9.813468 3.448803 -44.977826 -53.889071 15.217274 132.324361 -31.248484 -58.998089 0.000000 0.000000 0.000000 -1.774659 1.168378 0.491058 63.151200 44.356935 20.449696 -147.546079 34.810909 -79.111899 0.000000 0.000000 0.000000 
0.002065 0.951343 -0.076419 0.528344 0.728099 11.525385 5.772825 -0.813759 -14.107066 0.825078 -0.123686 0.914850 1.176870 6.064107 10.091649 0.000000 0.000000 0.000000 -6.515915 1.047772 -17.161154 -3.679972 0.771503 5.531938 2.032859 0.215813 9.506933 0.000000 0.000000 0.000000 3.255502 -0.234290 1.061482 1.368185 -0.533902 -2.309589 -8.864798 1.443756 8.176113 9.544699 -5.664981 -9.713942 0.000000 0.000000 0.000000 3.589532 -12.658019 4.250667 -55.832912 -55.506365 21.436475 132.935835 -33.076639 -62.604436 0.000000 0.000000 0.000000 -0.670457 3.920196 1.426530 74.332839 46.358420 27.378966 -148.899830 34.759475 -81.434691 0.000000 0.000000 0.000000 
0.002624 0.949832 -0.071604 0.825811 -0.121180 10.860391 5.480167 -0.778723 -13.349060 0.598384 -0.143888 2.070325 1.463258 6.506519 10.253974 0.000000 0.000000 0.000000 -6.039833 1.079727 -16.467950 -5.045598 1.049562 6.373822 2.340679 1.179644 8.573753 0.000000 0.000000 0.000000 3.944218 -0.252782 0.931657 0.845430 -0.277514 -3.227018 -9.506461 1.620805 8.487852 8.809112 -4.494668 -13.190680 0.000000 0.000000 0.000000 2.584334 -13.617890 4.557275 -67.005679 -57.639006 29.061920 133.766407 -35.518137 -67.160032 0.000000 0.000000 0.000000 -1.667520 4.747400 1.712894 87.304758 48.923066 37.233230 -148.442849 36.763851 -84.480357 0.000000 0.000000 0.000000 
0.002974 0.948842 -0.066414 1.076974 -0.748611 9.965472 5.278704 -0.713506 -11.986759 0.736427 -0.191603 2.840931 1.362240 5.834816 8.729061 0.000000 0.000000 0.000000 -6.124473 1.038559 -15.667521 -5.473259 1.132622 6.523365 2.587998 1.804202 8.217755 0.000000 0.000000 0.000000 4.010219 -0.211832 0.529797 0.975525 -0.279631 -4.948591 -10.006659 3.354610 9.286577 10.432087 -4.633421 -17.274680 0.000000 0.000000 0.000000 2.086622 -15.079621 4.997033 -71.976426 -58.193806 31.873389 133.216600 -35.826100 -67.562571 0.000000 0.000000 0.000000 -1.462331 5.527506 1.979410 94.928515 50.150507 44.400325 -146.079397 39.690158 -84.762860 0.000000 0.000000 0.000000 
0.003208 0.948108 -0.061297 1.236360 -0.751133 9.897573 5.296479 -0.684463 -11.342649 0.422460 -0.131492 2.333493 1.463613 6.112175 9.086069 0.000000 0.000000 0.000000 -6.123035 1.022645 -15.358535 -6.134314 1.242355 6.563674 3.099094 3.104200 7.848440 0.000000 0.000000 0.000000 3.873376 -0.135820 -0.376501 0.999189 -0.269414 -5.539158 -10.168510 3.726330 9.143016 10.541218 -4.067043 -20.179664 0.000000 0.000000 0.000000 1.317090 -15.495059 5.131251 -77.032477 -58.710368 35.343695 131.915641 -36.022497 -66.513238 0.000000 0.000000 0.000000 -1.620557 5.842203 2.082750 101.792101 51.584024 51.704441 -140.539737 41.069269 -78.739394 0.000000 0.000000 0.000000 
0.003709 0.948550 -0.056410 1.639524 -0.541342 10.342002 4.958683 -0.740421 -11.891429 0.469433 -0.169568 3.190838 1.041565 5.264012 8.632182 0.000000 0.000000 0.000000 -6.375607 0.978199 -14.845920 -6.421574 1.184853 5.514787 3.459356 4.144188 7.450266 0.000000 0.000000 0.000000 4.221333 -0.072576 -1.445784 0.263646 0.036024 -5.639557 -10.746468 3.761443 7.717970 11.042693 -3.944251 -21.728352 0.000000 0.000000 0.000000 1.248793 -14.558629 4.811210 -76.862761 -60.238446 36.643391 125.970193 -34.814023 -58.744433 0.000000 0.000000 0.000000 -1.964985 5.201915 1.855696 105.889722 53.130213 57.513819 -132.250733 39.651549 -66.144017 0.000000 0.000000 0.000000 
0.004516 0.950141 -0.051464 2.028516 1.216955 10.704921 4.905516 -0.807214 -12.490294 0.128561 -0.123806 3.080812 0.140264 4.053861 9.225567 0.000000 0.000000 0.000000 -6.829643 0.880551 -14.443423 -6.292220 1.123589 5.035341 3.223954 3.541644 7.978648 0.000000 0.000000 0.000000 3.775280 0.036882 -2.866047 0.436859 0.010018 -6.277104 -10.837317 3.413857 7.361284 11.338968 -4.245388 -20.626896 0.000000 0.000000 0.000000 1.344739 -15.257340 5.011569 -68.199977 -63.377257 33.567522 119.828331 -30.491148 -47.352345 0.000000 0.000000 0.000000 -1.618676 4.561556 1.640603 100.159488 56.035036 56.374130 -127.529177 36.412875 -55.536742 0.000000 0.000000 0.000000 
0.005741 0.952239 -0.046606 2.530454 2.309274 11.378022 4.145643 -0.923377 -13.192624 0.495188 -0.174180 3.103953 -1.383643 1.923877 10.278137 0.000000 0.000000 0.000000 -6.690372 0.859343 -14.089549 -6.899067 1.145486 4.332629 2.652024 2.229706 8.407838 0.000000 0.000000 0.000000 3.716264 0.105674 -3.991615 0.565411 -0.026870 -6.237878 -11.106790 3.273648 5.614299 11.028001 -4.154408 -19.462701 0.000000 0.000000 0.000000 3.757679 -14.895852 4.911539 -54.747919 -66.938010 27.279533 114.483297 -23.063940 -33.824422 0.000000 0.000000 0.000000 -4.378084 3.800996 1.305465 88.576028 60.010027 51.860505 -123.655765 29.463109 -41.096015 0.000000 0.000000 0.000000 
0.006989 0.954171 -0.042113 2.978576 3.213017 11.594296 3.828380 -0.995083 -13.716751 0.315998 -0.170296 3.540796 -1.721272 1.189146 9.668820 0.000000 0.000000 0.000000 -6.836557 0.809336 -13.595569 -6.846540 1.005084 2.918427 1.822970 0.228435 9.234584 0.000000 0.000000 0.000000 3.557650 0.137507 -4.527425 0.381906 0.112941 -7.726959 -10.334005 3.508922 6.204661 11.124486 -4.307720 -18.854967 0.000000 0.000000 0.000000 6.191711 -14.298907 4.792862 -28.896293 -68.725602 11.328912 110.945695 -13.117950 -18.944694 0.000000 0.000000 0.000000 -7.225137 2.473242 0.795716 66.402910 64.345974 39.426067 -120.513562 21.734241 -26.231815 0.000000 0.000000 0.000000 
0.007831 0.955085 -0.038683 3.270349 4.030733 12.252126 3.281636 -1.111097 -14.557851 0.490783 -0.210149 3.901580 -2.608614 0.069321 10.423663 0.000000 0.000000 0.000000 -7.026658 0.776722 -13.364710 -7.290326 1.002115 2.293413 1.011011 -1.557153 9.811002 0.000000 0.000000 0.000000 3.945625 0.143310 -4.860612 0.042291 0.280854 -8.504874 -10.331628 3.607491 5.545920 12.018677 -4.596246 -19.502217 0.000000 0.000000 0.000000 9.990042 -12.683485 4.559522 -7.236084 -69.172738 -2.552484 108.145283 -4.391549 -7.232922 0.000000 0.000000 0.000000 -10.839960 0.913254 0.288251 39.557329 64.684608 21.984240 -116.959426 11.307599 -8.366489 0.000000 0.000000 0.000000 
0.007783 0.955196 -0.036397 3.399708 4.592074 12.307163 3.329689 -1.185822 -15.498549 0.418630 -0.264483 5.331344 -2.457798 -0.178481 9.192960 0.000000 0.000000 0.000000 -6.929958 0.766396 -13.223650 -7.278582 0.968670 1.941777 0.568552 -2.325909 9.617412 0.000000 0.000000 0.000000 4.345883 0.103887 -4.437000 -0.208662 0.414827 -9.535300 -10.326513 4.416011 5.291104 12.427461 -4.807461 -19.076474 0.000000 0.000000 0.000000 13.179085 -10.899067 4.455380 11.173299 -66.363931 -13.912507 103.754016 2.897739 1.406316 0.000000 0.000000 0.000000 -13.717119 -1.134703 -0.338572 19.963655 60.631582 9.404903 -111.541052 3.626336 4.001184 0.000000 0.000000 0.000000 
